<svg width="390" height="510" viewBox="0 0 390 510" fill="none" xmlns="http://www.w3.org/2000/svg">
    <g filter="url(#filter0_ddddddd_400_2574)">
    <mask id="path-1-inside-1_400_2574" fill="white">
    <path fill-rule="evenodd" clip-rule="evenodd" d="M194.545 109.799C187.211 109.799 181.326 115.774 181.326 123.018V130.351H176.527V123.018C176.527 113.058 184.585 105 194.545 105C204.504 105 212.562 113.058 212.562 123.018V130.351H207.764V123.018C207.764 115.684 201.788 109.799 194.545 109.799ZM175.893 133.339H213.196C215.369 133.339 217.089 135.059 217.089 137.232V168.107C217.089 170.28 215.369 172 213.196 172H175.893C173.72 172 172 170.28 172 168.107V137.232C172 135.059 173.72 133.339 175.893 133.339ZM196.446 157.151V151.99C197.261 151.447 197.804 150.451 197.895 149.455C197.895 147.644 196.446 146.196 194.635 146.196C192.824 146.196 191.376 147.644 191.376 149.455C191.376 150.451 191.828 151.447 192.643 151.99V157.151C192.643 158.147 193.549 159.053 194.545 159.053C195.541 159.053 196.446 158.238 196.446 157.151Z"/>
    </mask>
    <path d="M181.326 130.351V131.351H182.326V130.351H181.326ZM176.527 130.351H175.527V131.351H176.527V130.351ZM212.562 130.351V131.351H213.562V130.351H212.562ZM207.764 130.351H206.764V131.351H207.764V130.351ZM196.446 151.99L195.891 151.158L195.446 151.455V151.99H196.446ZM197.895 149.455L198.891 149.546L198.895 149.501V149.455H197.895ZM192.643 151.99H193.643V151.455L193.198 151.158L192.643 151.99ZM182.326 123.018C182.326 116.322 187.768 110.799 194.545 110.799V108.799C186.654 108.799 180.326 115.227 180.326 123.018H182.326ZM182.326 130.351V123.018H180.326V130.351H182.326ZM176.527 131.351H181.326V129.351H176.527V131.351ZM175.527 123.018V130.351H177.527V123.018H175.527ZM194.545 104C184.033 104 175.527 112.506 175.527 123.018H177.527C177.527 113.61 185.137 106 194.545 106V104ZM213.562 123.018C213.562 112.506 205.056 104 194.545 104V106C203.952 106 211.562 113.61 211.562 123.018H213.562ZM213.562 130.351V123.018H211.562V130.351H213.562ZM207.764 131.351H212.562V129.351H207.764V131.351ZM206.764 123.018V130.351H208.764V123.018H206.764ZM194.545 110.799C201.24 110.799 206.764 116.241 206.764 123.018H208.764C208.764 115.127 202.336 108.799 194.545 108.799V110.799ZM213.196 132.339H175.893V134.339H213.196V132.339ZM218.089 137.232C218.089 134.507 215.921 132.339 213.196 132.339V134.339C214.817 134.339 216.089 135.612 216.089 137.232H218.089ZM218.089 168.107V137.232H216.089V168.107H218.089ZM213.196 173C215.921 173 218.089 170.832 218.089 168.107H216.089C216.089 169.727 214.817 171 213.196 171V173ZM175.893 173H213.196V171H175.893V173ZM171 168.107C171 170.832 173.168 173 175.893 173V171C174.273 171 173 169.727 173 168.107H171ZM171 137.232V168.107H173V137.232H171ZM175.893 132.339C173.168 132.339 171 134.507 171 137.232H173C173 135.612 174.273 134.339 175.893 134.339V132.339ZM195.446 151.99V157.151H197.446V151.99H195.446ZM196.899 149.365C196.832 150.094 196.427 150.801 195.891 151.158L197.001 152.822C198.095 152.093 198.776 150.808 198.891 149.546L196.899 149.365ZM194.635 147.196C195.894 147.196 196.895 148.197 196.895 149.455H198.895C198.895 147.092 196.998 145.196 194.635 145.196V147.196ZM192.376 149.455C192.376 148.197 193.377 147.196 194.635 147.196V145.196C192.272 145.196 190.376 147.092 190.376 149.455H192.376ZM193.198 151.158C192.708 150.831 192.376 150.176 192.376 149.455H190.376C190.376 150.726 190.949 152.063 192.089 152.822L193.198 151.158ZM193.643 157.151V151.99H191.643V157.151H193.643ZM194.545 158.053C194.101 158.053 193.643 157.595 193.643 157.151H191.643C191.643 158.699 192.996 160.053 194.545 160.053V158.053ZM195.446 157.151C195.446 157.655 195.019 158.053 194.545 158.053V160.053C196.062 160.053 197.446 158.821 197.446 157.151H195.446Z" fill="#0183FC" mask="url(#path-1-inside-1_400_2574)"/>
    </g>
    <defs>
    <filter id="filter0_ddddddd_400_2574" x="-165.68" y="-232.68" width="720.449" height="742.36" filterUnits="userSpaceOnUse" color-interpolation-filters="sRGB">
    <feFlood flood-opacity="0" result="BackgroundImageFix"/>
    <feColorMatrix in="SourceAlpha" type="matrix" values="0 0 0 0 0 0 0 0 0 0 0 0 0 0 0 0 0 0 127 0" result="hardAlpha"/>
    <feOffset/>
    <feGaussianBlur stdDeviation="13.5"/>
    <feColorMatrix type="matrix" values="0 0 0 0 0.231373 0 0 0 0 0.517647 0 0 0 0 0.921569 0 0 0 1 0"/>
    <feBlend mode="normal" in2="BackgroundImageFix" result="effect1_dropShadow_400_2574"/>
    <feColorMatrix in="SourceAlpha" type="matrix" values="0 0 0 0 0 0 0 0 0 0 0 0 0 0 0 0 0 0 127 0" result="hardAlpha"/>
    <feOffset/>
    <feGaussianBlur stdDeviation="18.7"/>
    <feColorMatrix type="matrix" values="0 0 0 0 0.231373 0 0 0 0 0.517647 0 0 0 0 0.921569 0 0 0 1 0"/>
    <feBlend mode="normal" in2="effect1_dropShadow_400_2574" result="effect2_dropShadow_400_2574"/>
    <feColorMatrix in="SourceAlpha" type="matrix" values="0 0 0 0 0 0 0 0 0 0 0 0 0 0 0 0 0 0 127 0" result="hardAlpha"/>
    <feOffset/>
    <feGaussianBlur stdDeviation="40.2"/>
    <feColorMatrix type="matrix" values="0 0 0 0 0.231373 0 0 0 0 0.517647 0 0 0 0 0.921569 0 0 0 1 0"/>
    <feBlend mode="normal" in2="effect2_dropShadow_400_2574" result="effect3_dropShadow_400_2574"/>
    <feColorMatrix in="SourceAlpha" type="matrix" values="0 0 0 0 0 0 0 0 0 0 0 0 0 0 0 0 0 0 127 0" result="hardAlpha"/>
    <feOffset/>
    <feGaussianBlur stdDeviation="56.28"/>
    <feColorMatrix type="matrix" values="0 0 0 0 0.231373 0 0 0 0 0.517647 0 0 0 0 0.921569 0 0 0 1 0"/>
    <feBlend mode="normal" in2="effect3_dropShadow_400_2574" result="effect4_dropShadow_400_2574"/>
    <feColorMatrix in="SourceAlpha" type="matrix" values="0 0 0 0 0 0 0 0 0 0 0 0 0 0 0 0 0 0 127 0" result="hardAlpha"/>
    <feOffset/>
    <feGaussianBlur stdDeviation="96.48"/>
    <feColorMatrix type="matrix" values="0 0 0 0 0.231373 0 0 0 0 0.517647 0 0 0 0 0.921569 0 0 0 1 0"/>
    <feBlend mode="normal" in2="effect4_dropShadow_400_2574" result="effect5_dropShadow_400_2574"/>
    <feColorMatrix in="SourceAlpha" type="matrix" values="0 0 0 0 0 0 0 0 0 0 0 0 0 0 0 0 0 0 127 0" result="hardAlpha"/>
    <feOffset/>
    <feGaussianBlur stdDeviation="168.84"/>
    <feColorMatrix type="matrix" values="0 0 0 0 0.231373 0 0 0 0 0.517647 0 0 0 0 0.921569 0 0 0 1 0"/>
    <feBlend mode="normal" in2="effect5_dropShadow_400_2574" result="effect6_dropShadow_400_2574"/>
    <feColorMatrix in="SourceAlpha" type="matrix" values="0 0 0 0 0 0 0 0 0 0 0 0 0 0 0 0 0 0 127 0" result="hardAlpha"/>
    <feOffset dy="4"/>
    <feGaussianBlur stdDeviation="2"/>
    <feComposite in2="hardAlpha" operator="out"/>
    <feColorMatrix type="matrix" values="0 0 0 0 0 0 0 0 0 0 0 0 0 0 0 0 0 0 0.5 0"/>
    <feBlend mode="normal" in2="effect6_dropShadow_400_2574" result="effect7_dropShadow_400_2574"/>
    <feBlend mode="normal" in="SourceGraphic" in2="effect7_dropShadow_400_2574" result="shape"/>
    </filter>
    </defs>
    </svg>
    