<svg viewBox="6.1614 6.778 15.6546 17.1295" width="15.6546" height="17.1295" xmlns="http://www.w3.org/2000/svg">
  <path
    d="M 21.499 14.418 C 21.63 14.516 21.816 14.424 21.816 14.261 L 21.812 13.365 L 21.812 6.977 C 21.813 6.868 21.725 6.778 21.615 6.778 L 6.363 6.778 C 6.254 6.778 6.163 6.866 6.163 6.977 L 6.163 10.906 C 6.163 11.075 6.203 11.241 6.278 11.392 C 6.354 11.542 6.463 11.673 6.597 11.774 L 18.071 20.339 C 18.171 20.413 18.178 20.558 18.087 20.642 C 17.875 20.842 17.652 21.031 17.42 21.208 C 17.349 21.261 17.251 21.261 17.18 21.209 L 6.482 13.204 C 6.351 13.106 6.165 13.199 6.165 13.363 C 6.165 14.736 6.044 17.297 7.199 19.259 C 8.489 21.451 10.705 23.181 12.984 23.741 C 13.314 23.821 13.642 23.878 13.971 23.906 C 13.984 23.908 13.997 23.908 14.009 23.906 C 15.501 23.773 17.02 23.092 18.323 22.064 C 18.649 21.805 18.962 21.527 19.259 21.227 C 19.847 20.637 20.358 19.976 20.782 19.26 C 21.165 18.612 21.406 17.899 21.56 17.186 C 21.594 17.031 21.623 16.875 21.648 16.719 C 21.716 16.31 21.55 15.897 21.219 15.649 L 11.506 8.396 C 11.354 8.282 11.433 8.039 11.626 8.039 L 12.911 8.039 C 12.954 8.039 12.995 8.053 13.03 8.078 L 21.499 14.417 L 21.499 14.418 Z"
    fill="#6B7A97" />
</svg>