<svg width="131" height="14" viewBox="0 0 131 14" fill="none" xmlns="http://www.w3.org/2000/svg">
    <path
        d="M0.96 11V2.6H4.62C5.284 2.6 5.848 2.848 6.312 3.344C6.784 3.832 7.02 4.444 7.02 5.18C7.02 5.916 6.784 6.532 6.312 7.028C5.848 7.516 5.284 7.76 4.62 7.76H1.92V11H0.96ZM1.92 6.86H4.62C5.02 6.86 5.36 6.704 5.64 6.392C5.92 6.08 6.06 5.676 6.06 5.18C6.06 4.684 5.92 4.28 5.64 3.968C5.36 3.656 5.02 3.5 4.62 3.5H1.92V6.86ZM12.5487 10.256C12.0047 10.832 11.3207 11.12 10.4967 11.12C9.67272 11.12 8.98472 10.832 8.43272 10.256C7.88872 9.672 7.61672 8.92 7.61672 8C7.61672 7.08 7.88872 6.332 8.43272 5.756C8.98472 5.172 9.67272 4.88 10.4967 4.88C11.3207 4.88 12.0047 5.172 12.5487 5.756C13.1007 6.332 13.3767 7.08 13.3767 8C13.3767 8.92 13.1007 9.672 12.5487 10.256ZM9.08072 9.644C9.46472 10.068 9.93672 10.28 10.4967 10.28C11.0567 10.28 11.5247 10.068 11.9007 9.644C12.2847 9.22 12.4767 8.672 12.4767 8C12.4767 7.328 12.2847 6.78 11.9007 6.356C11.5247 5.932 11.0567 5.72 10.4967 5.72C9.93672 5.72 9.46472 5.932 9.08072 6.356C8.70472 6.78 8.51672 7.328 8.51672 8C8.51672 8.672 8.70472 9.22 9.08072 9.644ZM15.5344 11L13.9144 5H14.8744L16.1944 10.04H16.4344L17.7544 5H19.1944L20.5144 10.04H20.7544L22.0744 5H23.0344L21.4144 11H19.8544L18.5944 6.14H18.3544L17.0944 11H15.5344ZM28.0777 9.32H29.0377C28.8297 9.896 28.5017 10.34 28.0537 10.652C27.6137 10.964 27.0817 11.12 26.4577 11.12C25.6337 11.12 24.9457 10.832 24.3937 10.256C23.8497 9.672 23.5777 8.92 23.5777 8C23.5777 7.08 23.8497 6.332 24.3937 5.756C24.9457 5.172 25.6337 4.88 26.4577 4.88C27.2497 4.88 27.9057 5.152 28.4257 5.696C28.9537 6.24 29.2177 6.928 29.2177 7.76C29.2177 7.888 29.2057 8.06 29.1817 8.276L29.1577 8.42H24.4777C24.5417 8.98 24.7577 9.432 25.1257 9.776C25.5017 10.112 25.9457 10.28 26.4577 10.28C26.8177 10.28 27.1377 10.196 27.4177 10.028C27.7057 9.86 27.9257 9.624 28.0777 9.32ZM24.4777 7.58H28.3177C28.2857 7.036 28.0937 6.592 27.7417 6.248C27.3977 5.896 26.9697 5.72 26.4577 5.72C25.9217 5.72 25.4737 5.892 25.1137 6.236C24.7537 6.58 24.5417 7.028 24.4777 7.58ZM30.5353 11V5H31.3153L31.4353 5.6H31.4953C31.6393 5.392 31.7873 5.24 31.9393 5.144C32.0993 5.048 32.3313 5 32.6353 5H33.6553V5.84H32.7553C32.3313 5.84 32.0033 5.956 31.7713 6.188C31.5473 6.412 31.4353 6.736 31.4353 7.16V11H30.5353ZM38.5191 9.32H39.4791C39.2711 9.896 38.9431 10.34 38.4951 10.652C38.0551 10.964 37.5231 11.12 36.8991 11.12C36.0751 11.12 35.3871 10.832 34.8351 10.256C34.2911 9.672 34.0191 8.92 34.0191 8C34.0191 7.08 34.2911 6.332 34.8351 5.756C35.3871 5.172 36.0751 4.88 36.8991 4.88C37.6911 4.88 38.3471 5.152 38.8671 5.696C39.3951 6.24 39.6591 6.928 39.6591 7.76C39.6591 7.888 39.6471 8.06 39.6231 8.276L39.5991 8.42H34.9191C34.9831 8.98 35.1991 9.432 35.5671 9.776C35.9431 10.112 36.3871 10.28 36.8991 10.28C37.2591 10.28 37.5791 10.196 37.8591 10.028C38.1471 9.86 38.3671 9.624 38.5191 9.32ZM34.9191 7.58H38.7591C38.7271 7.036 38.5351 6.592 38.1831 6.248C37.8391 5.896 37.4111 5.72 36.8991 5.72C36.3631 5.72 35.9151 5.892 35.5551 6.236C35.1951 6.58 34.9831 7.028 34.9191 7.58ZM45.4767 11L45.3567 10.16H45.2967C44.7927 10.8 44.1527 11.12 43.3767 11.12C42.5847 11.12 41.9247 10.832 41.3967 10.256C40.8767 9.672 40.6167 8.92 40.6167 8C40.6167 7.08 40.8767 6.332 41.3967 5.756C41.9247 5.172 42.5847 4.88 43.3767 4.88C44.1527 4.88 44.7927 5.2 45.2967 5.84H45.3567V2.6H46.2567V11H45.4767ZM42.0807 9.644C42.4567 10.068 42.9087 10.28 43.4367 10.28C43.9647 10.28 44.4167 10.068 44.7927 9.644C45.1687 9.22 45.3567 8.672 45.3567 8C45.3567 7.328 45.1687 6.78 44.7927 6.356C44.4167 5.932 43.9647 5.72 43.4367 5.72C42.9087 5.72 42.4567 5.932 42.0807 6.356C41.7047 6.78 41.5167 7.328 41.5167 8C41.5167 8.672 41.7047 9.22 42.0807 9.644ZM50.8219 11V2.6H51.7219V5.84H51.7819C52.2859 5.2 52.9259 4.88 53.7019 4.88C54.4939 4.88 55.1499 5.172 55.6699 5.756C56.1979 6.332 56.4619 7.08 56.4619 8C56.4619 8.92 56.1979 9.672 55.6699 10.256C55.1499 10.832 54.4939 11.12 53.7019 11.12C52.9259 11.12 52.2859 10.8 51.7819 10.16H51.7219L51.6019 11H50.8219ZM52.2859 9.644C52.6619 10.068 53.1139 10.28 53.6419 10.28C54.1699 10.28 54.6219 10.068 54.9979 9.644C55.3739 9.22 55.5619 8.672 55.5619 8C55.5619 7.328 55.3739 6.78 54.9979 6.356C54.6219 5.932 54.1699 5.72 53.6419 5.72C53.1139 5.72 52.6619 5.932 52.2859 6.356C51.9099 6.78 51.7219 7.328 51.7219 8C51.7219 8.672 51.9099 9.22 52.2859 9.644ZM57.6042 13.4V12.56H58.7442C58.9442 12.56 59.0842 12.44 59.1642 12.2L59.4042 11.48L56.9442 5H57.9042L59.7642 9.98H60.0042L61.6842 5H62.6442L59.9442 12.56C59.8402 12.856 59.7042 13.068 59.5362 13.196C59.3682 13.332 59.1242 13.4 58.8042 13.4H57.6042Z"
        fill="#F0F0F0" />
    <path
        d="M77.5 13C81.0899 13 84 10.0899 84 6.5C84 2.91015 81.0899 0 77.5 0C73.9101 0 71 2.91015 71 6.5C71 10.0899 73.9101 13 77.5 13Z"
        fill="#2E3148" />
    <path
        d="M77.5 10.2717C79.583 10.2717 81.2716 8.58312 81.2716 6.50012C81.2716 4.41712 79.583 2.72852 77.5 2.72852C75.417 2.72852 73.7284 4.41712 73.7284 6.50012C73.7284 8.58312 75.417 10.2717 77.5 10.2717Z"
        fill="#1B1E36" />
    <path
        d="M77.5134 0.829102C76.8117 0.829102 76.2428 3.374 76.2428 6.51326C76.2428 9.65252 76.8117 12.1974 77.5134 12.1974C78.215 12.1974 78.7839 9.65252 78.7839 6.51326C78.7839 3.374 78.215 0.829102 77.5134 0.829102ZM77.6011 11.8764C77.5209 11.9834 77.4406 11.9032 77.4406 11.9032C77.1175 11.5287 76.9559 10.8332 76.9559 10.8332C76.3907 9.01429 76.5253 5.10894 76.5253 5.10894C76.7909 2.00846 77.2742 1.27608 77.4385 1.11344C77.4553 1.09688 77.4774 1.08678 77.501 1.08492C77.5245 1.08306 77.5479 1.08956 77.5671 1.10328C77.8057 1.27233 78.0058 1.97931 78.0058 1.97931C78.5967 4.17272 78.5432 6.23239 78.5432 6.23239C78.5967 8.02458 78.2471 10.0307 78.2471 10.0307C77.978 11.5554 77.6011 11.8764 77.6011 11.8764Z"
        fill="#6F7390" />
    <path
        d="M82.4437 3.68456C82.0943 3.07575 79.604 3.8488 76.8799 5.41121C74.1558 6.97361 72.2339 8.73343 72.5829 9.34197C72.932 9.95051 75.4226 9.17773 78.1467 7.61532C80.8708 6.05291 82.7927 4.2931 82.4437 3.68456ZM72.905 9.25824C72.7712 9.24139 72.8015 9.13145 72.8015 9.13145C72.9654 8.66495 73.4876 8.17866 73.4876 8.17866C74.7846 6.78316 78.2393 4.95647 78.2393 4.95647C81.0605 3.6439 81.9368 3.69927 82.1591 3.76026C82.1819 3.76658 82.2018 3.7808 82.2152 3.80039C82.2285 3.81998 82.2345 3.84367 82.2321 3.86726C82.2053 4.15828 81.6904 4.68363 81.6904 4.68363C80.0828 6.28857 78.2695 7.26732 78.2695 7.26732C76.7416 8.20594 74.8274 8.90061 74.8274 8.90061C73.371 9.42542 72.905 9.25824 72.905 9.25824Z"
        fill="#6F7390" />
    <path
        d="M82.4315 9.36229C82.7835 8.75509 80.8666 6.98698 78.1516 5.41307C75.4366 3.83916 72.9471 3.05649 72.5953 3.66476C72.2436 4.27303 74.1601 6.04007 76.8765 7.61398C79.5929 9.18789 82.0797 9.97056 82.4315 9.36229ZM72.8286 3.89935C72.7764 3.77603 72.8864 3.74634 72.8864 3.74634C73.3724 3.65459 74.055 3.8635 74.055 3.8635C75.9122 4.2864 79.2237 6.36079 79.2237 6.36079C81.7734 8.14494 82.1645 8.93083 82.2231 9.15391C82.229 9.17679 82.2267 9.20104 82.2165 9.22238C82.2064 9.24372 82.189 9.26077 82.1675 9.27054C81.9016 9.39225 81.1895 9.21089 81.1895 9.21089C78.9948 8.62241 77.2395 7.54416 77.2395 7.54416C75.6624 6.69354 74.1029 5.38472 74.1029 5.38472C72.9179 4.38698 72.8291 3.90042 72.8291 3.90042L72.8286 3.89935Z"
        fill="#6F7390" />
    <path
        d="M77.5 7.1685C77.8693 7.1685 78.1687 6.86911 78.1687 6.49978C78.1687 6.13045 77.8693 5.83105 77.5 5.83105C77.1307 5.83105 76.8313 6.13045 76.8313 6.49978C76.8313 6.86911 77.1307 7.1685 77.5 7.1685Z"
        fill="#B7B9C8" />
    <path
        d="M80.2417 4.33323C80.456 4.33323 80.6296 4.15359 80.6296 3.932C80.6296 3.7104 80.456 3.53076 80.2417 3.53076C80.0275 3.53076 79.8539 3.7104 79.8539 3.932C79.8539 4.15359 80.0275 4.33323 80.2417 4.33323Z"
        fill="#B7B9C8" />
    <path
        d="M73.8755 5.69749C74.0897 5.69749 74.2634 5.51785 74.2634 5.29625C74.2634 5.07466 74.0897 4.89502 73.8755 4.89502C73.6613 4.89502 73.4877 5.07466 73.4877 5.29625C73.4877 5.51785 73.6613 5.69749 73.8755 5.69749Z"
        fill="#B7B9C8" />
    <path
        d="M76.7109 10.6194C76.9251 10.6194 77.0987 10.4397 77.0987 10.2181C77.0987 9.99653 76.9251 9.81689 76.7109 9.81689C76.4966 9.81689 76.323 9.99653 76.323 10.2181C76.323 10.4397 76.4966 10.6194 76.7109 10.6194Z"
        fill="#B7B9C8" />
    <path
        d="M94.32 8.24H95.34C95.1 9.128 94.644 9.832 93.972 10.352C93.308 10.864 92.524 11.12 91.62 11.12C90.492 11.12 89.54 10.716 88.764 9.908C87.988 9.1 87.6 8.064 87.6 6.8C87.6 5.536 87.988 4.5 88.764 3.692C89.54 2.884 90.492 2.48 91.62 2.48C92.516 2.48 93.3 2.736 93.972 3.248C94.644 3.752 95.1 4.436 95.34 5.3H94.32C94.112 4.7 93.768 4.232 93.288 3.896C92.808 3.552 92.252 3.38 91.62 3.38C90.764 3.38 90.04 3.7 89.448 4.34C88.856 4.972 88.56 5.792 88.56 6.8C88.56 7.808 88.856 8.632 89.448 9.272C90.04 9.904 90.764 10.22 91.62 10.22C92.252 10.22 92.808 10.048 93.288 9.704C93.768 9.352 94.112 8.864 94.32 8.24ZM101.178 10.256C100.634 10.832 99.9496 11.12 99.1256 11.12C98.3016 11.12 97.6136 10.832 97.0616 10.256C96.5176 9.672 96.2456 8.92 96.2456 8C96.2456 7.08 96.5176 6.332 97.0616 5.756C97.6136 5.172 98.3016 4.88 99.1256 4.88C99.9496 4.88 100.634 5.172 101.178 5.756C101.73 6.332 102.006 7.08 102.006 8C102.006 8.92 101.73 9.672 101.178 10.256ZM97.7096 9.644C98.0936 10.068 98.5656 10.28 99.1256 10.28C99.6856 10.28 100.154 10.068 100.53 9.644C100.914 9.22 101.106 8.672 101.106 8C101.106 7.328 100.914 6.78 100.53 6.356C100.154 5.932 99.6856 5.72 99.1256 5.72C98.5656 5.72 98.0936 5.932 97.7096 6.356C97.3336 6.78 97.1456 7.328 97.1456 8C97.1456 8.672 97.3336 9.22 97.7096 9.644ZM102.84 9.26H103.74C103.74 9.54 103.872 9.78 104.136 9.98C104.408 10.18 104.776 10.28 105.24 10.28C105.696 10.28 106.048 10.196 106.296 10.028C106.552 9.852 106.68 9.636 106.68 9.38C106.68 8.908 106.34 8.608 105.66 8.48L104.64 8.3C103.52 8.116 102.96 7.556 102.96 6.62C102.96 6.116 103.152 5.7 103.536 5.372C103.92 5.044 104.468 4.88 105.18 4.88C105.876 4.88 106.44 5.064 106.872 5.432C107.304 5.8 107.52 6.236 107.52 6.74H106.62C106.62 6.46 106.488 6.22 106.224 6.02C105.968 5.82 105.62 5.72 105.18 5.72C104.748 5.72 104.42 5.808 104.196 5.984C103.972 6.152 103.86 6.364 103.86 6.62C103.86 7.06 104.18 7.34 104.82 7.46L105.84 7.64C106.44 7.752 106.88 7.952 107.16 8.24C107.44 8.52 107.58 8.9 107.58 9.38C107.58 9.884 107.376 10.3 106.968 10.628C106.568 10.956 105.992 11.12 105.24 11.12C104.52 11.12 103.94 10.936 103.5 10.568C103.06 10.2 102.84 9.764 102.84 9.26ZM108.84 11V5H109.62L109.74 5.66H109.8C109.92 5.516 110.06 5.388 110.22 5.276C110.596 5.012 110.976 4.88 111.36 4.88C111.88 4.88 112.328 5.052 112.704 5.396C112.864 5.54 112.996 5.708 113.1 5.9H113.16C113.296 5.7 113.46 5.532 113.652 5.396C114.092 5.052 114.588 4.88 115.14 4.88C115.764 4.88 116.28 5.1 116.688 5.54C117.096 5.972 117.3 6.532 117.3 7.22V11H116.4V7.22C116.4 6.764 116.276 6.4 116.028 6.128C115.78 5.856 115.444 5.72 115.02 5.72C114.62 5.72 114.268 5.868 113.964 6.164C113.668 6.452 113.52 6.804 113.52 7.22V11H112.62V7.22C112.62 6.764 112.496 6.4 112.248 6.128C112 5.856 111.664 5.72 111.24 5.72C110.84 5.72 110.488 5.868 110.184 6.164C109.888 6.452 109.74 6.804 109.74 7.22V11H108.84ZM123.549 10.256C123.005 10.832 122.321 11.12 121.497 11.12C120.673 11.12 119.985 10.832 119.433 10.256C118.889 9.672 118.617 8.92 118.617 8C118.617 7.08 118.889 6.332 119.433 5.756C119.985 5.172 120.673 4.88 121.497 4.88C122.321 4.88 123.005 5.172 123.549 5.756C124.101 6.332 124.377 7.08 124.377 8C124.377 8.92 124.101 9.672 123.549 10.256ZM120.081 9.644C120.465 10.068 120.937 10.28 121.497 10.28C122.057 10.28 122.525 10.068 122.901 9.644C123.285 9.22 123.477 8.672 123.477 8C123.477 7.328 123.285 6.78 122.901 6.356C122.525 5.932 122.057 5.72 121.497 5.72C120.937 5.72 120.465 5.932 120.081 6.356C119.705 6.78 119.517 7.328 119.517 8C119.517 8.672 119.705 9.22 120.081 9.644ZM125.212 9.26H126.112C126.112 9.54 126.244 9.78 126.508 9.98C126.78 10.18 127.148 10.28 127.612 10.28C128.068 10.28 128.42 10.196 128.668 10.028C128.924 9.852 129.052 9.636 129.052 9.38C129.052 8.908 128.712 8.608 128.032 8.48L127.012 8.3C125.892 8.116 125.332 7.556 125.332 6.62C125.332 6.116 125.524 5.7 125.908 5.372C126.292 5.044 126.84 4.88 127.552 4.88C128.248 4.88 128.812 5.064 129.244 5.432C129.676 5.8 129.892 6.236 129.892 6.74H128.992C128.992 6.46 128.86 6.22 128.596 6.02C128.34 5.82 127.992 5.72 127.552 5.72C127.12 5.72 126.792 5.808 126.568 5.984C126.344 6.152 126.232 6.364 126.232 6.62C126.232 7.06 126.552 7.34 127.192 7.46L128.212 7.64C128.812 7.752 129.252 7.952 129.532 8.24C129.812 8.52 129.952 8.9 129.952 9.38C129.952 9.884 129.748 10.3 129.34 10.628C128.94 10.956 128.364 11.12 127.612 11.12C126.892 11.12 126.312 10.936 125.872 10.568C125.432 10.2 125.212 9.764 125.212 9.26Z"
        fill="#F0F0F0" />
</svg>