<svg width="84" height="84" viewBox="0 0 84 84" fill="none" xmlns="http://www.w3.org/2000/svg">
    <path
        d="M42 0C18.6667 0 0 18.6667 0 42C0 65.3333 18.6667 84 42 84C65.3333 84 84 65.3333 84 42C84 18.6667 65.3333 0 42 0ZM63.9333 31.2667L38.2667 59.2667C37.3333 60.2 35.9333 60.6667 35 60.6667C34.0667 60.6667 32.6667 60.2 31.7333 59.2667L20.0667 46.6667C18.2 44.8 18.6667 42 20.5333 40.1333C22.4 38.2667 25.2 38.7333 27.0667 40.6L35 49.4667L57.4 25.2C59.2667 23.3333 62.0667 23.3333 63.9333 24.7333C65.8 26.1333 65.8 29.4 63.9333 31.2667Z"
        fill="#0184FC" />
</svg>