<svg width="20" height="21" viewBox="0 0 20 21" fill="none" xmlns="http://www.w3.org/2000/svg">
    <path
        d="M12.9568 7.3237C12.6925 6.86121 12.208 6.59694 11.6794 6.59694H8.8825L10.4902 2.10421C10.6444 1.64172 10.5783 1.13519 10.314 0.760793C10.0497 0.386399 9.58724 0.100098 9.12475 0.100098H4.78619C4.12549 0.100098 3.53086 0.562584 3.35468 1.20126L0.711897 11.0897C0.601781 11.5301 0.689874 12.0146 0.976176 12.367C1.26248 12.7414 1.68092 12.9396 2.1434 12.9396H5.24867L3.88324 19.3043C3.72907 20.0091 4.10347 20.6698 4.76416 20.912C4.94035 20.9781 5.11653 21.0001 5.29272 21.0001C5.77723 21.0001 6.23972 20.7358 6.50399 20.2733L12.9788 8.79926C13.2431 8.33677 13.2431 7.78619 12.9568 7.3237ZM5.29272 19.6126L6.7903 12.6533C6.85637 12.367 6.7903 12.0807 6.59209 11.8385C6.39388 11.5962 6.1296 11.4861 5.8433 11.4861L2.09936 11.442L4.76416 1.5316L9.12475 1.57565L7.27481 6.72908C7.16469 7.01538 7.20874 7.34572 7.38492 7.61C7.56111 7.87428 7.86943 8.02844 8.17776 8.02844H11.6794L11.7015 8.07249L5.29272 19.6126Z"
        fill="#6B7A97" />
</svg>