<svg width="18" height="20" viewBox="0 0 18 20" fill="none" xmlns="http://www.w3.org/2000/svg">
    <path
        d="M7.51736 7.05195C7.51736 6.69014 7.22419 6.39697 6.86238 6.39697C6.50057 6.39697 6.2074 6.69014 6.2074 7.05195V14.9144C6.2074 15.2762 6.50057 15.5694 6.86238 15.5694C7.22419 15.5694 7.51736 15.2762 7.51736 14.9144V7.05195Z"
        fill="#6B7A97" />
    <path
        d="M10.1382 7.05195C10.1382 6.69014 9.84505 6.39697 9.48324 6.39697C9.12143 6.39697 8.82733 6.69014 8.82733 7.05195V14.9144C8.82733 15.2762 9.12143 15.5694 9.48324 15.5694C9.84505 15.5694 10.1382 15.2762 10.1382 14.9144V7.05195Z"
        fill="#6B7A97" />
    <path
        d="M12.104 6.39697C12.4658 6.39697 12.759 6.69014 12.759 7.05195V14.9144C12.759 15.2762 12.4658 15.5694 12.104 15.5694C11.7413 15.5694 11.4481 15.2762 11.4481 14.9144V7.05195C11.4481 6.69014 11.7413 6.39697 12.104 6.39697Z"
        fill="#6B7A97" />
    <path fill-rule="evenodd" clip-rule="evenodd"
        d="M7.37082 0.500003L7.30681 0.512992C6.54141 0.666068 6.0961 1.21158 5.8586 1.71997C5.74356 1.96768 5.66748 2.22466 5.61924 2.46587H1.62068C1.25887 2.46587 0.965698 2.75904 0.965698 3.12085C0.965698 3.48265 1.25887 3.77583 1.62068 3.77583H2.38049C2.37864 3.74243 2.38049 3.80922 2.38049 3.77583L3.49378 18.2902C3.54573 18.973 4.11536 19.5 4.80003 19.5H14.1666C14.8513 19.5 15.42 18.973 15.4728 18.2902L16.5852 3.77583C16.5852 3.80922 16.588 3.74243 16.5852 3.77583H17.345C17.7068 3.77583 18 3.48265 18 3.12085C18 2.75904 17.7068 2.46587 17.345 2.46587H13.3158C13.0217 1.14106 12.2638 0.5 11.5309 0.5L7.37082 0.500003ZM11.965 2.46587C11.7962 1.94078 11.5596 1.83595 11.5132 1.81459C11.5086 1.81274 11.5058 1.81088 11.5058 1.81088L11.5067 1.80996H7.51198C7.31994 1.86655 7.16779 2.01499 7.04719 2.27382C7.04719 2.27382 6.99245 2.39999 6.97112 2.46586L11.965 2.46587ZM15.2753 3.77583H3.69169L4.80035 18.19H14.1669L15.2753 3.77583Z"
        fill="#6B7A97" />
</svg>