<svg width="20" height="20" viewBox="0 0 20 20" fill="none" xmlns="http://www.w3.org/2000/svg">
    <path d="M10 0C15.524 0 20.002 4.478 20.002 10.002C20.002 15.525 15.524 20.002 10 20.002C4.476 20.003 1.6749e-07 15.525 1.6749e-07 10.002C-0.000999833 4.478 4.476 0 10 0ZM12.94 14.502H7.061C7.713 16.917 8.847 18.504 10.001 18.504C11.154 18.504 12.288 16.916 12.94 14.502ZM5.51 14.502H2.785C3.75092 16.0467 5.18594 17.2417 6.88 17.912C6.358 17.092 5.927 16.066 5.61 14.897L5.508 14.502H5.51ZM17.215 14.502H14.493C14.169 15.837 13.701 17.002 13.12 17.913C14.7068 17.2853 16.0689 16.1961 17.03 14.786L17.215 14.502ZM5.094 8.002H1.736L1.731 8.019C1.57658 8.66867 1.49905 9.33423 1.5 10.002C1.4986 11.0267 1.68291 12.0431 2.044 13.002H5.217C5.07058 12.0087 4.99805 11.006 5 10.002C5 9.318 5.032 8.648 5.095 8.001L5.094 8.002ZM13.397 8.002H6.603C6.42709 9.66732 6.47249 11.3486 6.738 13.002H13.262C13.5274 11.3486 13.5728 9.66732 13.397 8.002ZM18.265 8.002H14.907C14.969 8.649 15.002 9.319 15.002 10.002C15.0036 11.006 14.9308 12.0088 14.784 13.002H17.957C18.3183 12.0431 18.503 11.0267 18.502 10.002C18.502 9.313 18.42 8.643 18.265 8.002ZM6.88 2.09L6.857 2.098C4.81005 2.9157 3.15905 4.49395 2.25 6.502H5.298C5.612 4.75 6.158 3.224 6.881 2.092L6.88 2.09ZM10 1.499L9.883 1.504C8.62 1.622 7.397 3.623 6.83 6.502H13.172C12.606 3.632 11.389 1.633 10.127 1.507L10 1.499ZM13.12 2.089L13.226 2.264C13.896 3.376 14.403 4.836 14.701 6.501H17.749C16.8809 4.58508 15.3357 3.05733 13.41 2.211L13.12 2.089Z" fill="white"/>
    </svg>
    