<svg width="24" height="24" viewBox="0 0 21 18"  fill="none" xmlns="http://www.w3.org/2000/svg">
    <path d="M15.4411 2.55683C12.067 -0.817196 6.58898 -0.855106 3.15809 2.46205L1.94496 1.24892C1.79332 1.09728 1.56585 1.04041 1.33839 1.09728C1.1678 1.15414 0.978244 1.3437 0.940334 1.5522L0.0115295 6.02563C-0.0263809 6.23413 0.0304847 6.42369 0.163171 6.55637C0.314813 6.70801 0.504364 6.76488 0.712871 6.70801L5.1863 5.77921C5.41376 5.7413 5.58435 5.58966 5.64122 5.36219C5.69809 5.15369 5.64122 4.90727 5.48958 4.75563L4.25749 3.56145C7.08181 0.850861 11.5742 0.888771 14.3416 3.65623C17.147 6.4616 17.147 11.0298 14.3416 13.8541C12.9769 15.2189 11.1761 15.9581 9.24271 15.9581C7.30928 15.9581 5.50853 15.1999 4.14376 13.8541C3.08227 12.7926 2.38093 11.4468 2.13451 9.9683C2.05869 9.55129 1.66063 9.24801 1.24362 9.32383C0.826603 9.39965 0.542275 9.79771 0.59914 10.2147C0.902423 12.0155 1.75541 13.6456 3.04436 14.9346C4.69346 16.5837 6.89226 17.4935 9.24271 17.4935C11.5931 17.4935 13.7919 16.5837 15.4411 14.9346C18.853 11.5226 18.853 5.96876 15.4411 2.55683Z" fill="#6B7A97"/>
    <path d="M9.29962 3.25818C8.86365 3.25818 8.52246 3.59937 8.52246 4.03534V8.75518C8.52246 9.03951 8.6741 9.30488 8.92052 9.43757L11.4226 10.8213C11.5363 10.8971 11.669 10.9161 11.8017 10.9161C12.0671 10.9161 12.3325 10.7644 12.4841 10.518C12.6926 10.1389 12.5599 9.66503 12.1808 9.45652L10.0768 8.30026V4.03534C10.0768 3.59937 9.73559 3.25818 9.29962 3.25818Z" fill="#6B7A97"/>
    </svg>
    