<svg width="21" height="21" viewBox="0 0 21 21" fill="none" xmlns="http://www.w3.org/2000/svg">
    <path fill-rule="evenodd" clip-rule="evenodd" d="M10.5213 0C4.80872 0 0.190674 4.65209 0.190674 10.4074C0.190674 15.0079 3.14962 18.9021 7.25446 20.2804C7.76767 20.384 7.95565 20.0564 7.95565 19.7809C7.95565 19.5396 7.93874 18.7126 7.93874 17.8509C5.06501 18.4713 4.46658 16.6103 4.46658 16.6103C4.00476 15.4041 3.32048 15.0941 3.32048 15.0941C2.37991 14.4566 3.38899 14.4566 3.38899 14.4566C4.43233 14.5255 4.97979 15.5249 4.97979 15.5249C5.90323 17.11 7.39127 16.6621 7.98991 16.3864C8.07534 15.7143 8.34918 15.2491 8.63993 14.9907C6.34793 14.7495 3.93646 13.8535 3.93646 9.85588C3.93646 8.71866 4.34669 7.78824 4.99671 7.06463C4.89415 6.80622 4.53488 5.73772 5.09948 4.30763C5.09948 4.30763 5.97175 4.03189 7.93852 5.37592C8.78057 5.1481 9.64896 5.03221 10.5213 5.03124C11.3935 5.03124 12.2827 5.15198 13.1038 5.37592C15.0708 4.03189 15.9431 4.30763 15.9431 4.30763C16.5077 5.73772 16.1482 6.80622 16.0456 7.06463C16.7128 7.78824 17.1061 8.71866 17.1061 9.85588C17.1061 13.8535 14.6946 14.7321 12.3855 14.9907C12.7619 15.3181 13.0867 15.9383 13.0867 16.9205C13.0867 18.3161 13.0698 19.4362 13.0698 19.7807C13.0698 20.0564 13.258 20.384 13.771 20.2806C17.8758 18.9019 20.8348 15.0079 20.8348 10.4074C20.8517 4.65209 16.2167 0 10.5213 0Z" fill="#ffffff"/>
    </svg>
    