<svg width="37" height="38" viewBox="0 0 37 38" fill="none" xmlns="http://www.w3.org/2000/svg"
    xmlns:xlink="http://www.w3.org/1999/xlink">
    <circle cx="18.2272" cy="19.0001" r="18.2272" fill="url(#pattern0)" />
    <circle cx="18.2272" cy="19.0001" r="18.2272" fill="black" />
    <g clip-path="url(#clip0_146_2731)">
        <path
            d="M26.9508 10.5832C27.1973 10.5832 27.3973 10.7829 27.3973 11.029V18.1169V18.5571C27.4029 19.4318 27.41 20.5203 27.2578 21.6777C27.0804 23.0264 26.7282 24.1233 26.1859 25.0304C24.4195 27.9864 21.2472 30.1508 18.2708 30.4405C18.2567 30.4419 18.2412 30.4433 18.2272 30.4433C18.2131 30.4433 18.1976 30.4433 18.1835 30.4405C15.2028 30.1494 12.032 27.985 10.2684 25.0304C9.72471 24.1219 9.37537 23.0249 9.19647 21.6777C9.04434 20.5217 9.05139 19.4318 9.05843 18.5571V18.1169L9.05984 11.029C9.05984 10.7829 9.25986 10.5832 9.50637 10.5832H26.9508ZM26.9508 9.69727H9.50637C8.77107 9.69727 8.1724 10.295 8.1724 11.029V18.5543C8.16395 19.4023 8.15409 20.5681 8.31608 21.793C8.51047 23.264 8.89925 24.4706 9.50496 25.4832C10.4347 27.0414 11.7362 28.4168 13.2674 29.4631C14.8112 30.5178 16.4776 31.1605 18.0863 31.3194C18.1328 31.325 18.1793 31.3279 18.2257 31.3279C18.2722 31.3279 18.3187 31.325 18.3652 31.3194C19.9724 31.1619 21.6374 30.5206 23.1827 29.4645C24.7139 28.4182 26.0154 27.0414 26.9465 25.4832C27.5537 24.4678 27.9424 23.2612 28.1354 21.793C28.296 20.578 28.289 19.4557 28.2833 18.5557V18.1141V11.029C28.2833 10.295 27.6847 9.69727 26.9494 9.69727L26.9508 9.69727Z"
            fill="#0156FC" />
        <path
            d="M25.7371 19.5585C25.8681 19.6569 26.054 19.5641 26.054 19.401L26.0498 18.5052V12.1177C26.0512 12.008 25.9625 11.918 25.8526 11.918H10.6014C10.4916 11.918 10.4014 12.0066 10.4014 12.1177V16.0469C10.4014 16.2157 10.4408 16.3816 10.5155 16.5321C10.5916 16.6826 10.7014 16.8134 10.8353 16.9146L22.3085 25.4791C22.4085 25.5536 22.4156 25.6985 22.3254 25.7829C22.1127 25.9826 21.8901 26.171 21.6577 26.3482C21.5873 26.4016 21.4887 26.4016 21.4182 26.3496L10.7198 18.3448C10.5888 18.2464 10.4028 18.3392 10.4028 18.5038C10.4028 19.8763 10.2817 22.4372 11.4367 24.399C12.727 26.5915 14.9428 28.3213 17.222 28.881C17.5516 28.9611 17.8798 29.0188 18.2094 29.0469C18.2221 29.0483 18.2348 29.0483 18.2474 29.0469C19.7392 28.9133 21.2577 28.2327 22.5606 27.2047C22.8874 26.9459 23.2002 26.6674 23.4974 26.3679C24.0848 25.7772 24.5961 25.1163 25.0201 24.4005C25.4032 23.7521 25.6441 23.0391 25.7977 22.3261C25.8315 22.1714 25.861 22.0153 25.8864 21.8592C25.954 21.45 25.7878 21.0379 25.4568 20.789L15.7443 13.5366C15.5922 13.4227 15.6711 13.1794 15.864 13.1794H17.1487C17.1924 13.1794 17.2332 13.1935 17.2684 13.2188L25.7371 19.5571V19.5585Z"
            fill="#0156FC" />
    </g>
</svg>