<svg width="317" height="303" viewBox="0 0 317 303" fill="none" xmlns="http://www.w3.org/2000/svg">
  <ellipse cx="158.5" cy="151.5" rx="156.5" ry="149.5" stroke="#0046CE" stroke-width="3" stroke-linecap="round"
    stroke-linejoin="round" stroke-dasharray="0.1 75" />
  <path
    d="M207.938 99.993C209.327 99.993 210.455 101.118 210.455 102.505V142.449V144.93C210.486 149.859 210.526 155.993 209.669 162.516C208.669 170.116 206.684 176.298 203.628 181.41C193.673 198.069 175.796 210.266 159.022 211.899C158.943 211.906 158.856 211.914 158.776 211.914C158.697 211.914 158.61 211.914 158.53 211.899C141.733 210.258 123.864 198.061 113.925 181.41C110.861 176.29 108.892 170.108 107.884 162.516C107.026 156.001 107.066 149.859 107.106 144.93V142.449L107.114 102.505C107.114 101.118 108.241 99.993 109.63 99.993H207.938ZM207.938 95H109.63C105.486 95 102.113 98.3683 102.113 102.505V144.914C102.065 149.693 102.009 156.263 102.922 163.166C104.018 171.456 106.209 178.256 109.622 183.962C114.862 192.743 122.197 200.494 130.825 206.39C139.526 212.334 148.917 215.956 157.982 216.852C158.244 216.884 158.506 216.899 158.768 216.899C159.03 216.899 159.292 216.884 159.554 216.852C168.612 215.964 177.995 212.35 186.703 206.398C195.332 200.502 202.667 192.743 207.914 183.962C211.336 178.24 213.527 171.44 214.614 163.166C215.519 156.318 215.48 149.994 215.448 144.922V142.433V102.505C215.448 98.3683 212.074 95 207.93 95L207.938 95Z"
    fill="#0156FC" />
  <path
    d="M201.097 150.572C201.835 151.127 202.883 150.604 202.883 149.684L202.859 144.636V108.639C202.867 108.021 202.367 107.514 201.748 107.514H115.8C115.181 107.514 114.672 108.013 114.672 108.639V130.782C114.672 131.733 114.895 132.669 115.316 133.517C115.744 134.365 116.363 135.102 117.117 135.672L181.775 183.938C182.339 184.358 182.378 185.174 181.87 185.649C180.672 186.775 179.417 187.837 178.108 188.835C177.711 189.137 177.155 189.137 176.758 188.843L116.467 143.732C115.728 143.178 114.68 143.701 114.68 144.628C114.68 152.363 113.998 166.795 120.507 177.851C127.779 190.206 140.266 199.955 153.11 203.109C154.967 203.561 156.817 203.886 158.675 204.044C158.746 204.052 158.817 204.052 158.889 204.044C167.296 203.291 175.853 199.455 183.196 193.662C185.038 192.204 186.8 190.634 188.475 188.946C191.785 185.618 194.667 181.893 197.056 177.859C199.216 174.205 200.573 170.187 201.438 166.169C201.629 165.297 201.795 164.417 201.938 163.538C202.319 161.232 201.383 158.909 199.517 157.507L144.783 116.636C143.925 115.994 144.37 114.623 145.457 114.623H152.697C152.943 114.623 153.173 114.702 153.372 114.845L201.097 150.564V150.572Z"
    fill="#0156FC" />
</svg>