<svg width="18" height="13" viewBox="0 0 21 13" fill="none" xmlns="http://www.w3.org/2000/svg">
  <path
    d="M1.50862 12.5H18.75C19.15 12.4995 19.5334 12.3404 19.8162 12.0576C20.099 11.7748 20.2581 11.3913 20.2586 10.9914V1.50862C20.2581 1.10866 20.099 0.725217 19.8162 0.442401C19.5334 0.159586 19.15 0.000485924 18.75 0H1.50862C1.10866 0.000485924 0.725217 0.159586 0.442401 0.442401C0.159585 0.725217 0.000485924 1.10866 0 1.50862V10.9914C0.000485924 11.3913 0.159585 11.7748 0.442401 12.0576C0.725217 12.3404 1.10866 12.4995 1.50862 12.5ZM18.75 11.2069H1.50862C1.4515 11.2068 1.39674 11.184 1.35635 11.1437C1.31595 11.1033 1.29321 11.0485 1.2931 10.9914V6.25H18.9655V10.9914C18.9654 11.0485 18.9427 11.1033 18.9023 11.1437C18.8619 11.184 18.8071 11.2068 18.75 11.2069ZM1.50862 1.2931H18.75C18.8071 1.29321 18.8619 1.31595 18.9023 1.35635C18.9427 1.39674 18.9654 1.4515 18.9655 1.50862V3.66379H1.2931V1.50862C1.29321 1.4515 1.31595 1.39674 1.35635 1.35635C1.39674 1.31595 1.4515 1.29321 1.50862 1.2931Z"
    fill="#6B7A97" />
</svg>