<svg width="24" height="25" viewBox="0 0 24 25" fill="none" xmlns="http://www.w3.org/2000/svg">
    <path
        d="M21.5853 8.01121C21.8676 7.72888 21.8676 7.27112 21.5853 6.98879L16.9844 2.38788C16.702 2.10555 16.2443 2.10555 15.9619 2.38788C15.6796 2.67022 15.6796 3.12797 15.9619 3.41031L20.0516 7.5L15.9619 11.5897C15.6796 11.872 15.6796 12.3298 15.9619 12.6121C16.2443 12.8945 16.702 12.8945 16.9844 12.6121L21.5853 8.01121ZM2.48879 16.7488C2.20645 17.0311 2.20645 17.4889 2.48879 17.7712L7.08969 22.3721C7.37203 22.6544 7.82978 22.6544 8.11212 22.3721C8.39445 22.0898 8.39445 21.632 8.11212 21.3497L4.02242 17.26L8.11212 13.1703C8.39445 12.888 8.39445 12.4302 8.11212 12.1479C7.82978 11.8655 7.37203 11.8655 7.08969 12.1479L2.48879 16.7488ZM5.16889 8.22296H21.0741V6.77704H5.16889V8.22296ZM18.9052 16.537H3V17.983H18.9052V16.537Z"
        fill="#6B7A97" />
</svg>