<svg width="20" height="21" viewBox="0 0 20 21" fill="none" xmlns="http://www.w3.org/2000/svg">
    <path d="M18.2956 0.179583C18.2956 0.179583 20.1456 -0.700848 19.9908 1.43717C19.9399 2.3176 19.4775 5.3994 19.1175 8.73225L17.8842 18.6059C17.8842 18.6059 17.7813 20.0523 16.8561 20.304C15.9313 20.555 14.5437 19.4235 14.2866 19.1719C14.0809 18.983 10.4324 16.1529 9.14763 14.7697C8.78763 14.392 8.37621 13.6377 9.19906 12.7572L14.5947 6.46812C15.2114 5.7138 15.828 3.95294 13.2585 6.09096L6.06339 12.0651C6.06339 12.0651 5.24102 12.6945 3.69961 12.1284L0.358706 10.8703C0.358706 10.8703 -0.874609 9.92708 1.2325 8.98389C6.37195 6.0282 12.6933 3.00975 18.2946 0.179583H18.2956Z" fill="#EFF4FF"/>
    </svg>
    